<?xml version="1.0" encoding="utf-8"?>
<!-- Generator: Adobe Illustrator 19.2.1, SVG Export Plug-In . SVG Version: 6.00 Build 0)  -->
<svg version="1.1" id="Layer_1" xmlns="http://www.w3.org/2000/svg" xmlns:xlink="http://www.w3.org/1999/xlink" x="0px" y="0px"
	 viewBox="0 0 48 47.5" style="enable-background:new 0 0 48 47.5;" xml:space="preserve">
<style type="text/css">
	.st0{fill:#FFFFFF;}
	.st1{fill:#2A419A;}
	.st2{fill:#93201C;}
</style>
<title>Png 48px Solid - 70 Basic Icons</title>
<g>
	<ellipse cx="19.5" cy="43.5" rx="4" ry="4"/>
	<ellipse cx="34.6" cy="43.5" rx="4" ry="4"/>
	<path d="M41.3,29.3c0.5,0,0.9-0.3,1-0.7L48,8.4c0.2-0.5-0.1-1.1-0.7-1.2c-0.1,0-0.2,0-0.3,0H11C11,7.1,11,7,10.9,7L9,1.8
		C8.8,1.1,8.2,0.7,7.6,0.5l0,0H1.9C0.8,0.6,0,1.5,0,2.5c0,1.1,0.8,1.9,1.9,2h4l1,2.5l6,21.5c0,0.2,0.1,0.3,0.2,0.4l-2.4,5.8
		c-0.4,0.9,0.1,2,1,2.4l0,0h0.1c0.2,0.1,0.5,0.2,0.8,0.2h28c1.1,0,2-0.9,2-2s-0.9-2-2-2H15.3l1.7-4L41.3,29.3L41.3,29.3z"/>
</g>
<g>
	<g id="Page-1_1_">
		<g id="noun_584589_cc_1_">
			<path id="Shape_1_" d="M25.2,1.6c-0.3-0.1-0.7,0.1-0.7,0.5l-0.9,3.7l-2.5,2.5C21.1,8.5,21,8.6,21,8.7l-2.5,10.9l-1.7,0.5
				c-0.2,0.1-0.4,0.2-0.4,0.4l-1.3,5.5c-0.1,0.2,0,0.4,0.2,0.6c0.2,0.1,0.4,0.2,0.6,0.1l3.8-1.2l2.9,2.7c0.2,0.1,0.4,0.2,0.6,0.1
				c0.2-0.1,0.4-0.3,0.4-0.4l1.3-5.5c0.1-0.2,0-0.4-0.2-0.6l-1.3-1.2l2.5-10.9c0-0.1,0-0.2,0-0.3l-1.1-3.4l0.9-3.7
				C25.7,2,25.5,1.7,25.2,1.6L25.2,1.6z M23.4,15.1l-2.5-0.6l0.5-2.3l2.5,0.6L23.4,15.1L23.4,15.1z M22.3,21.3l1.3,1.2l-1,4.2
				l-2.4-2.2c-0.2-0.1-0.4-0.2-0.6-0.1l-3.1,1l1-4.2l1.7-0.5c0.2-0.1,0.4-0.2,0.4-0.4l1-4.5l2.5,0.6l-1,4.5
				C22.1,21,22.1,21.2,22.3,21.3L22.3,21.3z M24.7,9.7l-0.4,1.8l-2.5-0.6l0.4-1.8l1.8-1.8L24.7,9.7L24.7,9.7z"/>
		</g>
	</g>
	<polygon class="st0" points="23.4,15.1 20.9,14.5 21.4,12.1 24,12.7 	"/>
	<path class="st1" d="M22.3,21.3l1.3,1.2l-1,4.2l-2.4-2.2c-0.2-0.1-0.4-0.2-0.6-0.1l-3.1,1l1-4.2l1.7-0.5c0.2-0.1,0.4-0.2,0.4-0.4
		l1-4.5l2.5,0.6l-1,4.5C22.1,21,22.1,21.2,22.3,21.3L22.3,21.3z"/>
	<polygon class="st2" points="24.7,9.7 24.3,11.5 21.7,10.9 22.1,9.1 23.9,7.3 	"/>
</g>
<g>
	<g id="Page-1_2_">
		<g id="noun_584589_cc_2_">
			<path id="Shape_2_" d="M33.3,1.6c-0.3-0.1-0.7,0.1-0.7,0.5l-0.9,3.7l-2.5,2.5c-0.1,0.1-0.1,0.2-0.2,0.3l-2.5,10.9l-1.7,0.5
				c-0.2,0.1-0.4,0.2-0.4,0.4l-1.3,5.5c-0.1,0.2,0,0.4,0.2,0.6c0.2,0.1,0.4,0.2,0.6,0.1l3.8-1.2l2.9,2.7c0.2,0.1,0.4,0.2,0.6,0.1
				c0.2-0.1,0.4-0.3,0.4-0.4l1.3-5.5c0.1-0.2,0-0.4-0.2-0.6l-1.3-1.2L34,9.8c0-0.1,0-0.2,0-0.3l-1.1-3.4l0.9-3.7
				C33.9,2,33.7,1.7,33.3,1.6L33.3,1.6z M31.6,15.1L29,14.5l0.5-2.3l2.5,0.6L31.6,15.1L31.6,15.1z M30.4,21.3l1.3,1.2l-1,4.2
				l-2.4-2.2c-0.2-0.1-0.4-0.2-0.6-0.1l-3.1,1l1-4.2l1.7-0.5c0.2-0.1,0.4-0.2,0.4-0.4l1-4.5l2.5,0.6l-1,4.5
				C30.2,21,30.3,21.2,30.4,21.3L30.4,21.3z M32.8,9.7l-0.4,1.8l-2.5-0.6l0.4-1.8L32,7.3L32.8,9.7L32.8,9.7z"/>
		</g>
	</g>
	<polygon class="st0" points="31.6,15.1 29,14.5 29.6,12.1 32.1,12.7 	"/>
	<path class="st1" d="M30.4,21.3l1.3,1.2l-1,4.2l-2.4-2.2c-0.2-0.1-0.4-0.2-0.6-0.1l-3.1,1l1-4.2l1.7-0.5c0.2-0.1,0.4-0.2,0.4-0.4
		l1-4.5l2.5,0.6l-1,4.5C30.2,21,30.3,21.2,30.4,21.3L30.4,21.3z"/>
	<polygon class="st2" points="32.8,9.7 32.4,11.5 29.9,10.9 30.3,9.1 32,7.3 	"/>
</g>
<g>
	<g id="Page-1_3_">
		<g id="noun_584589_cc_3_">
			<path id="Shape_3_" d="M41.2,1.6c-0.3-0.1-0.7,0.1-0.7,0.5l-0.9,3.7l-2.5,2.5C37.1,8.5,37,8.6,37,8.7l-2.5,10.9l-1.7,0.5
				c-0.2,0.1-0.4,0.2-0.4,0.4l-1.3,5.5c-0.1,0.2,0,0.4,0.2,0.6c0.2,0.1,0.4,0.2,0.6,0.1l3.8-1.2l2.9,2.7c0.2,0.1,0.4,0.2,0.6,0.1
				c0.2-0.1,0.4-0.3,0.4-0.4l1.3-5.5c0.1-0.2,0-0.4-0.2-0.6l-1.3-1.2l2.5-10.9c0-0.1,0-0.2,0-0.3l-1.1-3.4l0.9-3.7
				C41.7,2,41.5,1.7,41.2,1.6L41.2,1.6z M39.4,15.1l-2.5-0.6l0.5-2.3l2.5,0.6L39.4,15.1L39.4,15.1z M38.3,21.3l1.3,1.2l-1,4.2
				l-2.4-2.2c-0.2-0.1-0.4-0.2-0.6-0.1l-3.1,1l1-4.2l1.7-0.5c0.2-0.1,0.4-0.2,0.4-0.4l1-4.5l2.5,0.6l-1,4.5
				C38.1,21,38.1,21.2,38.3,21.3L38.3,21.3z M40.7,9.7l-0.4,1.8l-2.5-0.6l0.4-1.8l1.8-1.8L40.7,9.7L40.7,9.7z"/>
		</g>
	</g>
	<polygon class="st0" points="39.4,15.1 36.9,14.5 37.4,12.1 40,12.7 	"/>
	<path class="st1" d="M38.3,21.3l1.3,1.2l-1,4.2l-2.4-2.2c-0.2-0.1-0.4-0.2-0.6-0.1l-3.1,1l1-4.2l1.7-0.5c0.2-0.1,0.4-0.2,0.4-0.4
		l1-4.5l2.5,0.6l-1,4.5C38.1,21,38.1,21.2,38.3,21.3L38.3,21.3z"/>
	<polygon class="st2" points="40.7,9.7 40.3,11.5 37.7,10.9 38.1,9.1 39.9,7.3 	"/>
</g>
</svg>
