<?xml version="1.0" encoding="utf-8"?>
<!-- Generator: Adobe Illustrator 19.2.1, SVG Export Plug-In . SVG Version: 6.00 Build 0)  -->
<svg version="1.1" id="Layer_1" xmlns="http://www.w3.org/2000/svg" xmlns:xlink="http://www.w3.org/1999/xlink" x="0px" y="0px"
	 viewBox="0 0 510 510" style="enable-background:new 0 0 510 510;" xml:space="preserve">
<style type="text/css">
	.st0{fill:none;}
</style>
<title>logo</title>
<desc>Created with Sketch.</desc>
<g id="Page-1">
	<g id="noun_584589_cc">
		<path id="Shape" d="M504.9,5.1c-5.5-5.5-14.4-5.5-20,0l-63.1,63.1l-79.6,19.7c-2.5,0.6-4.8,1.9-6.6,3.7L152,275.4l-40-10.8
			c-4.9-1.3-10.1,0.1-13.7,3.6L5.1,361.5c-3.6,3.6-5,8.8-3.7,13.6c1.3,4.9,5.1,8.7,10,10l89.5,24.2l24.1,89.5c1.3,4.9,5.1,8.8,10,10
			c4.4,1,10.9-1,13.6-3.7l93.2-93.2c3.6-3.6,5-8.8,3.6-13.7l-10.8-40l183.7-183.7c1.8-1.8,3.1-4.1,3.7-6.6l19.7-79.7l63.1-63.1
			C510.4,19.6,510.4,10.6,504.9,5.1L504.9,5.1z M305.2,247.7l-42.9-42.9l39.6-39.6l42.9,42.9L305.2,247.7L305.2,247.7z M205.4,357.7
			l10.8,40L146,467.9L126.1,394c-1.3-4.9-5.1-8.6-9.9-10l-73.8-19.9l70.2-70.2l39.9,10.8c4.9,1.3,10.1-0.1,13.7-3.6l76.3-76.3
			l42.9,42.9L209,344C205.4,347.6,204,352.8,205.4,357.7L205.4,357.7z M395.7,157.3l-30.9,30.9l-42.9-42.9l30.9-30.9l56.9-14.1
			L395.7,157.3L395.7,157.3z"/>
	</g>
</g>
<g>
	<polygon class="st0" points="1049.2,225.2 1049,285.9 1092.7,286.1 1143,255.9 1092.9,225.4 	"/>
	<polygon points="964.8,196.7 936.8,196.6 936.8,224.9 936.8,313.6 964.8,313.7 964.8,285.5 	"/>
	<path d="M1263.5,242.2l-89.2-0.3l-70.1-42.6c-2.2-1.4-4.7-2.1-7.3-2.1l-76-0.2v28.2v88.9l75.4,0.3c2.5,0,5.1-0.7,7.3-2l70.4-42.2
		l89.2,0.3c7.8,0.1,14.2-6.2,14.3-14S1271.4,242.3,1263.5,242.2z M1092.7,286.1l-43.7-0.2l0.2-60.7l43.7,0.2l50.1,30.5L1092.7,286.1
		z"/>
	<path d="M936.6,285.6l-108-0.5c-5.1,0-9.8,2.7-12.3,7.1L795.6,328l-99.3-0.4l38.4-66.2c2.6-4.4,2.5-9.7,0.1-14.1L697,181l99.3,0.4
		l20.4,35.9c2.5,4.4,7.2,7.1,12.2,7.2l107.9,0.4v-28.3l-99.7-0.3l-20.5-36c-2.5-4.4-7.2-7.1-12.2-7.2l-131.9-0.4
		c-5.1,0-9.8,2.7-12.3,7c-2.6,4.4-2.6,9.7-0.1,14.1l45.9,80.6l-46.5,80.2c-2.6,4.4-2.7,9.8-0.1,14.1c2.4,3.8,8.4,7,12.2,7l131.8,0.5
		c5.1,0,9.8-2.7,12.3-7.1l20.8-35.8l100.2,0.4v-88.7L936.6,285.6z"/>
	<polyline points="965,224.8 1021,225.1 1021,196.9 964.8,196.7 	"/>
	<polygon points="1020.8,285.7 964.8,285.5 964.8,313.7 1021,313.9 1021,225.1 	"/>
</g>
</svg>
