<?xml version="1.0" encoding="UTF-8" standalone="no"?>
<svg width="510px" height="510px" viewBox="0 0 510 510" version="1.1" xmlns="http://www.w3.org/2000/svg" xmlns:xlink="http://www.w3.org/1999/xlink">
    <!-- Generator: Sketch 40.2 (33826) - http://www.bohemiancoding.com/sketch -->
    <title>logo</title>
    <desc>Created with Sketch.</desc>
    <defs></defs>
    <g id="Page-1" stroke="none" stroke-width="1" fill="none" fill-rule="evenodd">
        <g id="noun_584589_cc" fill="#000000">
            <path d="M504.9,5.1 C499.4,-0.4 490.5,-0.4 484.9,5.1 L421.8,68.2 L342.2,87.9 C339.7,88.5 337.4,89.8 335.6,91.6 L152,275.4 L112,264.6 C107.1,263.3 101.9,264.7 98.3,268.2 L5.1,361.5 C1.5,365.1 0.1,370.3 1.4,375.1 C2.7,380 6.5,383.8 11.4,385.1 L100.9,409.3 L125,498.8 C126.3,503.7 130.1,507.6 135,508.8 C139.4,509.8 145.9,507.8 148.6,505.1 L241.8,411.9 C245.4,408.3 246.8,403.1 245.4,398.2 L234.6,358.2 L418.3,174.5 C420.1,172.7 421.4,170.4 422,167.9 L441.7,88.2 L504.8,25.1 C510.4,19.6 510.4,10.6 504.9,5.1 L504.9,5.1 Z M305.2,247.7 L262.3,204.8 L301.9,165.2 L344.8,208.1 L305.2,247.7 L305.2,247.7 Z M205.4,357.7 L216.2,397.7 L146,467.9 L126.1,394 C124.8,389.1 121,385.4 116.2,384 L42.4,364.1 L112.6,293.9 L152.5,304.7 C157.4,306 162.6,304.6 166.2,301.1 L242.5,224.8 L285.4,267.7 L209,344 C205.4,347.6 204,352.8 205.4,357.7 L205.4,357.7 Z M395.7,157.3 L364.8,188.2 L321.9,145.3 L352.8,114.4 L409.7,100.3 L395.7,157.3 L395.7,157.3 Z" id="Shape"></path>
        </g>
    </g>
</svg>