<?xml version="1.0" encoding="utf-8"?>
<!-- Generator: Adobe Illustrator 19.2.1, SVG Export Plug-In . SVG Version: 6.00 Build 0)  -->
<svg version="1.1" id="Layer_1" xmlns="http://www.w3.org/2000/svg" xmlns:xlink="http://www.w3.org/1999/xlink" x="0px" y="0px"
	 viewBox="0 0 2202.2 543.1" style="enable-background:new 0 0 2202.2 543.1;" xml:space="preserve">
<style type="text/css">
	.st0{fill:#FFFFFF;}
	.st1{fill:#2A419A;}
	.st2{fill:#93201C;}
	.st3{enable-background:new    ;}
</style>
<title>logo</title>
<desc>Created with Sketch.</desc>
<g id="Page-1">
	<g id="noun_584589_cc">
		<path id="Shape" d="M520.1,23.3c-5.5-5.5-14.4-5.5-20,0L437,86.4l-79.6,19.7c-2.5,0.6-4.8,1.9-6.6,3.7L167.2,293.6l-40-10.8
			c-4.9-1.3-10.1,0.1-13.7,3.6l-93.2,93.3c-3.6,3.6-5,8.8-3.7,13.6c1.3,4.9,5.1,8.7,10,10l89.5,24.2l24.1,89.5
			c1.3,4.9,5.1,8.8,10,10c4.4,1,10.9-1,13.6-3.7l93.2-93.2c3.6-3.6,5-8.8,3.6-13.7l-10.8-40l183.7-183.7c1.8-1.8,3.1-4.1,3.7-6.6
			l19.7-79.7L520,43.3C525.6,37.8,525.6,28.8,520.1,23.3L520.1,23.3z M320.4,265.9L277.5,223l39.6-39.6l42.9,42.9L320.4,265.9
			L320.4,265.9z M220.6,375.9l10.8,40l-70.2,70.2l-19.9-73.9c-1.3-4.9-5.1-8.6-9.9-10l-73.8-19.9l70.2-70.2l39.9,10.8
			c4.9,1.3,10.1-0.1,13.7-3.6l76.3-76.3l42.9,42.9l-76.4,76.3C220.6,365.8,219.2,371,220.6,375.9L220.6,375.9z M410.9,175.5
			L380,206.4l-42.9-42.9l30.9-30.9l56.9-14.1L410.9,175.5L410.9,175.5z"/>
	</g>
</g>
<polygon class="st0" points="320.4,265.9 277.5,223 317.1,183.4 360,226.3 "/>
<path class="st1" d="M220.6,375.9l10.8,40l-70.2,70.2l-19.9-73.9c-1.3-4.9-5.1-8.6-9.9-10l-73.8-19.9l70.2-70.2l39.9,10.8
	c4.9,1.3,10.1-0.1,13.7-3.6l76.3-76.3l42.9,42.9l-76.4,76.3C220.6,365.8,219.2,371,220.6,375.9L220.6,375.9z"/>
<polygon class="st2" points="410.9,175.5 380,206.4 337.1,163.5 368,132.6 424.9,118.5 "/>
<g class="st3">
	<path d="M539.5,364.6V297l-52.9-99.8H538l14.2,37.7c4.7,11.7,7.7,20.1,11.4,30.8h0.5c3.2-10.2,6.7-19.4,10.7-30.8l13.9-37.7h50.4
		l-54.9,98.1v69.3H539.5z"/>
</g>
<g class="st3">
	<path d="M671.3,325.8l-9.4,38.7h-46.4l48.7-167.4h59.6l49.9,167.4h-48.4l-10.7-38.7H671.3z M708.3,292.5l-7.7-30
		c-2.5-9.4-5.7-23.1-8.2-33H692c-2.5,9.9-5,23.8-7.4,33.3l-7.2,29.8H708.3z"/>
</g>
<g class="st3">
	<path d="M790.1,199.4c12.7-2,31.8-3.5,54.1-3.5c25.6,0,44,3.5,56.6,12.9c10.7,8.2,16.6,20.1,16.6,36.5c0,20.9-15.6,35.8-28.8,40.5
		v1c11.2,4.7,17.1,15.4,21.4,29.8c5.2,17.1,10.7,41.5,13.9,47.9H878c-2.5-5-6.7-17.9-11.7-38.5c-4.5-20.1-10.7-24.3-24.6-24.3h-7.2
		v62.8h-44.4V199.4z M834.5,269.7h11.7c16.9,0,26.6-8.4,26.6-20.9c0-12.7-8.2-19.6-23.1-19.9c-8.4,0-12.9,0.5-15.1,1V269.7z"/>
</g>
<g class="st3">
	<path d="M943.3,199.4c14.4-2.2,33.5-3.5,53.4-3.5c32,0,52.1,5.2,68.8,16.6c18.4,12.7,30.3,33.5,30.3,64.3c0,34-12.9,56.1-29.3,68.8
		c-18.4,14.4-45.7,20.9-78.5,20.9c-21.6,0-36-1.5-44.7-3V199.4z M988.2,331c2.2,0.5,6.5,0.5,9.4,0.5c29.1,0.5,50.4-15.6,50.4-53.4
		c0-32.5-19.4-47.9-46.2-47.9c-7.2,0-11.4,0.5-13.7,1V331z"/>
</g>
<g class="st3">
	<path d="M1305.3,304.7c-0.5-19.1-1-41.5-0.7-67.5h-0.7c-5.2,22.1-12.2,47.2-17.6,65.6l-16.6,58.4h-35l-14.2-58.1
		c-4.2-18.1-9.4-43-13.2-65.8h-0.5c-1,23.6-2,48.4-2.7,67.5l-2.5,59.8h-41.2l10.2-167.4h60.3l11.2,44.9c4.5,18.6,9.4,41,12.9,61.3h1
		c4.7-20.4,10.2-44,15.1-61.6l12.4-44.7h59.1l8.4,167.4h-43.7L1305.3,304.7z"/>
</g>
<g class="st3">
	<path d="M1418.5,197.2v167.4h-44.9V197.2H1418.5z"/>
</g>
<g class="st3">
	<path d="M1452.3,319.9c10.2,5.2,26.8,10.4,43.5,10.4c15.4,0,22.8-5.2,22.8-13.7c0-8.2-7.4-12.9-26.3-19.4
		c-28.3-9.9-46.9-25.6-46.9-50.4c0-29.5,24.8-52.4,67-52.4c20.1,0,34.3,3.7,45.4,8.7l-9.4,35.8c-7.2-3.2-19.6-7.9-36.5-7.9
		c-13.7,0-21.1,5-21.1,12.4c0,8.4,8.9,11.9,30,19.9c30,10.9,43.7,27.1,43.7,50.4c0,28.8-22.6,53.6-71.5,53.6
		c-20.1,0-39.7-5.5-49.2-10.4L1452.3,319.9z"/>
</g>
<g class="st3">
	<path d="M1586.7,319.9c10.2,5.2,26.8,10.4,43.5,10.4c15.4,0,22.8-5.2,22.8-13.7c0-8.2-7.4-12.9-26.3-19.4
		c-28.3-9.9-46.9-25.6-46.9-50.4c0-29.5,24.8-52.4,67-52.4c20.1,0,34.3,3.7,45.4,8.7l-9.4,35.8c-7.2-3.2-19.6-7.9-36.5-7.9
		c-13.7,0-21.1,5-21.1,12.4c0,8.4,8.9,11.9,30,19.9c30,10.9,43.7,27.1,43.7,50.4c0,28.8-22.6,53.6-71.5,53.6
		c-20.1,0-39.7-5.5-49.2-10.4L1586.7,319.9z"/>
	<path d="M1767.9,197.2v167.4H1723V197.2H1767.9z"/>
	<path d="M1798.7,197.2h44.9v129.9h64.3v37.5h-109.3V197.2z"/>
	<path d="M2034.9,297h-60.1v30.8h67.3v36.7h-112.2V197.2h108.8v36.5h-63.8v27.1h60.1V297z"/>
	<path d="M2069.9,319.9c10.2,5.2,26.8,10.4,43.5,10.4c15.4,0,22.8-5.2,22.8-13.7c0-8.2-7.4-12.9-26.3-19.4
		c-28.3-9.9-46.9-25.6-46.9-50.4c0-29.5,24.8-52.4,67-52.4c20.1,0,34.3,3.7,45.4,8.7l-9.4,35.8c-7.2-3.2-19.6-7.9-36.5-7.9
		c-13.7,0-21.1,5-21.1,12.4c0,8.4,8.9,11.9,30,19.9c30,10.9,43.7,27.1,43.7,50.4c0,28.8-22.6,53.6-71.5,53.6
		c-20.1,0-39.7-5.5-49.2-10.4L2069.9,319.9z"/>
</g>
</svg>
