<?xml version="1.0" encoding="utf-8"?>
<!-- Generator: Adobe Illustrator 19.2.1, SVG Export Plug-In . SVG Version: 6.00 Build 0)  -->
<svg version="1.1" id="Layer_1" xmlns="http://www.w3.org/2000/svg" xmlns:xlink="http://www.w3.org/1999/xlink" x="0px" y="0px"
	 viewBox="0 0 1773.7 633.1" style="enable-background:new 0 0 1773.7 633.1;" xml:space="preserve">
<style type="text/css">
	.st0{fill:#FFFFFF;}
	.st1{fill:#2A419A;}
	.st2{fill:#93201C;}
	.st3{enable-background:new    ;}
</style>
<title>logo</title>
<desc>Created with Sketch.</desc>
<g>
	<g id="Page-1">
		<g id="noun_584589_cc">
			<path id="Shape" d="M1326.9,33.7c-7-1.6-13.9,2.7-15.6,9.7l-18.5,80l-52.5,54.2c-1.7,1.7-2.8,3.8-3.3,6.1l-53.6,232.9l-36.5,11.1
				c-4.5,1.4-7.8,5-8.9,9.5l-27.2,118.2c-1.1,4.6,0.4,9.3,3.7,12.4c3.4,3.2,8.2,4.3,12.7,2.9l81.6-24.7l62.4,58.1
				c3.4,3.2,8.3,4.4,12.7,2.9c3.9-1.4,8-6.1,8.8-9.5l27.3-118.1c1.1-4.6-0.4-9.3-3.9-12.4l-27.9-25.9l53.8-232.8
				c0.5-2.3,0.4-4.7-0.3-7l-23.5-71.8l18.5-80C1338.3,42.3,1333.9,35.3,1326.9,33.7L1326.9,33.7z M1289.4,320.3l-54.4-12.6
				l11.6-50.2l54.4,12.6L1289.4,320.3L1289.4,320.3z M1265.1,454.7l27.9,25.9l-20.5,89l-51.5-48c-3.4-3.2-8.2-4.2-12.6-3l-67.3,20.4
				l20.5-89l36.4-11c4.5-1.4,7.8-5,8.9-9.5l22.3-96.7l54.4,12.6l-22.4,96.8C1260.2,446.8,1261.6,451.6,1265.1,454.7L1265.1,454.7z
				 M1315.9,205.6l-9,39.2l-54.4-12.6l9-39.2l37.5-38.7L1315.9,205.6L1315.9,205.6z"/>
		</g>
	</g>
	<polygon class="st0" points="1289.4,320.3 1235,307.7 1246.6,257.5 1301,270.1 	"/>
	<path class="st1" d="M1265.1,454.7l27.9,25.9l-20.5,89l-51.5-48c-3.4-3.2-8.2-4.2-12.6-3l-67.3,20.4l20.5-89l36.4-11
		c4.5-1.4,7.8-5,8.9-9.5l22.3-96.7l54.4,12.6l-22.4,96.8C1260.2,446.8,1261.6,451.6,1265.1,454.7L1265.1,454.7z"/>
	<polygon class="st2" points="1315.9,205.6 1306.9,244.8 1252.5,232.2 1261.5,193.1 1299,154.3 	"/>
</g>
<g class="st3">
	<path d="M567.8-700v-67.6l-52.9-99.8h51.4l14.2,37.7c4.7,11.7,7.7,20.1,11.4,30.8h0.5c3.2-10.2,6.7-19.4,10.7-30.8l13.9-37.7h50.4
		l-54.9,98.1v69.3H567.8L567.8-700z"/>
</g>
<g class="st3">
	<path d="M699.6-738.8l-9.4,38.7h-46.4l48.7-167.4h59.6L802-700.1h-48.4l-10.7-38.7H699.6z M736.6-772.1l-7.7-30
		c-2.5-9.4-5.7-23.1-8.2-33h-0.4c-2.5,9.9-5,23.8-7.4,33.3l-7.2,29.8L736.6-772.1L736.6-772.1z"/>
</g>
<g class="st3">
	<path d="M818.4-865.2c12.7-2,31.8-3.5,54.1-3.5c25.6,0,44,3.5,56.6,12.9c10.7,8.2,16.6,20.1,16.6,36.5c0,20.9-15.6,35.8-28.8,40.5
		v1c11.2,4.7,17.1,15.4,21.4,29.8c5.2,17.1,10.7,41.5,13.9,47.9h-45.9c-2.5-5-6.7-17.9-11.7-38.5c-4.5-20.1-10.7-24.3-24.6-24.3
		h-7.2v62.8h-44.4V-865.2z M862.8-794.9h11.7c16.9,0,26.6-8.4,26.6-20.9c0-12.7-8.2-19.6-23.1-19.9c-8.4,0-12.9,0.5-15.1,1v39.8
		H862.8z"/>
</g>
<g class="st3">
	<path d="M971.6-865.2c14.4-2.2,33.5-3.5,53.4-3.5c32,0,52.1,5.2,68.8,16.6c18.4,12.7,30.3,33.5,30.3,64.3c0,34-12.9,56.1-29.3,68.8
		c-18.4,14.4-45.7,20.9-78.5,20.9c-21.6,0-36-1.5-44.7-3V-865.2z M1016.5-733.6c2.2,0.5,6.5,0.5,9.4,0.5
		c29.1,0.5,50.4-15.6,50.4-53.4c0-32.5-19.4-47.9-46.2-47.9c-7.2,0-11.4,0.5-13.7,1v99.8H1016.5z"/>
</g>
<g class="st3">
	<path d="M1333.6-759.9c-0.5-19.1-1-41.5-0.7-67.5h-0.7c-5.2,22.1-12.2,47.2-17.6,65.6l-16.6,58.4h-35l-14.2-58.1
		c-4.2-18.1-9.4-43-13.2-65.8h-0.5c-1,23.6-2,48.4-2.7,67.5l-2.5,59.8h-41.2l10.2-167.4h60.3l11.2,44.9c4.5,18.6,9.4,41,12.9,61.3h1
		c4.7-20.4,10.2-44,15.1-61.6l12.4-44.7h59.1l8.4,167.4h-43.7L1333.6-759.9z"/>
</g>
<g class="st3">
	<path d="M1446.8-867.4V-700h-44.9v-167.4H1446.8z"/>
</g>
<g class="st3">
	<path d="M1480.6-744.7c10.2,5.2,26.8,10.4,43.5,10.4c15.4,0,22.8-5.2,22.8-13.7c0-8.2-7.4-12.9-26.3-19.4
		c-28.3-9.9-46.9-25.6-46.9-50.4c0-29.5,24.8-52.4,67-52.4c20.1,0,34.3,3.7,45.4,8.7l-9.4,35.8c-7.2-3.2-19.6-7.9-36.5-7.9
		c-13.7,0-21.1,5-21.1,12.4c0,8.4,8.9,11.9,30,19.9c30,10.9,43.7,27.1,43.7,50.4c0,28.8-22.6,53.6-71.5,53.6
		c-20.1,0-39.7-5.5-49.2-10.4L1480.6-744.7z"/>
</g>
<g class="st3">
	<path d="M1615-744.7c10.2,5.2,26.8,10.4,43.5,10.4c15.4,0,22.8-5.2,22.8-13.7c0-8.2-7.4-12.9-26.3-19.4
		c-28.3-9.9-46.9-25.6-46.9-50.4c0-29.5,24.8-52.4,67-52.4c20.1,0,34.3,3.7,45.4,8.7l-9.4,35.8c-7.2-3.2-19.6-7.9-36.5-7.9
		c-13.7,0-21.1,5-21.1,12.4c0,8.4,8.9,11.9,30,19.9c30,10.9,43.7,27.1,43.7,50.4c0,28.8-22.6,53.6-71.5,53.6
		c-20.1,0-39.7-5.5-49.2-10.4L1615-744.7z"/>
	<path d="M1796.2-867.4V-700h-44.9v-167.4H1796.2z"/>
	<path d="M1827-867.4h44.9v129.9h64.3v37.5h-109.3L1827-867.4L1827-867.4z"/>
	<path d="M2063.2-767.6h-60.1v30.8h67.3v36.7h-112.2v-167.3H2067v36.5h-63.8v27.1h60.1v36.2H2063.2z"/>
	<path d="M2098.2-744.7c10.2,5.2,26.8,10.4,43.5,10.4c15.4,0,22.8-5.2,22.8-13.7c0-8.2-7.4-12.9-26.3-19.4
		c-28.3-9.9-46.9-25.6-46.9-50.4c0-29.5,24.8-52.4,67-52.4c20.1,0,34.3,3.7,45.4,8.7l-9.4,35.8c-7.2-3.2-19.6-7.9-36.5-7.9
		c-13.7,0-21.1,5-21.1,12.4c0,8.4,8.9,11.9,30,19.9c30,10.9,43.7,27.1,43.7,50.4c0,28.8-22.6,53.6-71.5,53.6
		c-20.1,0-39.7-5.5-49.2-10.4L2098.2-744.7z"/>
</g>
<text transform="matrix(1 0 0 1 -31.4937 -329.1541)"><tspan x="0" y="0" style="font-family:'Menlo-Bold'; font-size:246.3685px;">ERECTILE</tspan><tspan x="0" y="170.4" style="font-family:'Menlo-Bold'; font-size:179.5285px;">PROJECTILES </tspan></text>
<g>
	<path d="M150,97.7h75.3v14.4h-58.1v34.2h55.6v14.4h-55.6v49.4h59.7v14.4H150V97.7z"/>
	<path d="M330.4,164.6c4.4,1.1,8.2,3.3,11.3,6.4c3.1,3.1,7,9.4,11.6,18.8l17.2,34.7h-18.4l-15.1-32c-4.4-9.1-8.3-15-11.8-17.6
		s-8-4-13.6-4h-16.4v53.6H278V97.7h35.3c13.9,0,24.6,3.1,32,9.4c7.4,6.3,11.1,15.4,11.1,27.3c0,8.4-2.3,15.2-6.8,20.5
		C345.1,160.2,338.7,163.4,330.4,164.6z M295.2,111.8v45H314c8.2,0,14.3-1.8,18.4-5.5c4-3.7,6-9.3,6-16.9c0-7.3-2.1-12.9-6.4-16.8
		c-4.3-3.9-10.5-5.8-18.6-5.8H295.2z"/>
	<path d="M415.2,97.7h75.3v14.4h-58.1v34.2h55.6v14.4h-55.6v49.4h59.7v14.4h-76.9V97.7z"/>
	<path d="M622.2,220c-4.4,2.3-8.8,4.1-13.4,5.2c-4.6,1.2-9.5,1.7-14.6,1.7c-16.3,0-28.9-5.7-37.9-17.2c-9-11.5-13.5-27.7-13.5-48.5
		c0-20.7,4.5-36.9,13.6-48.5c9-11.6,21.6-17.4,37.8-17.4c5.2,0,10,0.6,14.6,1.7c4.6,1.2,9.1,2.9,13.4,5.2v17.6
		c-4.2-3.5-8.7-6.1-13.5-7.9c-4.8-1.8-9.7-2.7-14.5-2.7c-11.2,0-19.5,4.3-25.1,12.9c-5.6,8.6-8.3,21.6-8.3,39
		c0,17.3,2.8,30.3,8.3,38.9c5.6,8.6,13.9,12.9,25.1,12.9c5,0,9.9-0.9,14.7-2.7c4.8-1.8,9.2-4.4,13.4-7.9V220z"/>
	<path d="M667.6,97.7h96.8v14.4h-39.7v112.4h-17.2V112.1h-39.8V97.7z"/>
	<path d="M813.3,97.7h70.4v14.4h-26.6v98h26.6v14.4h-70.4v-14.4h26.6v-98h-26.6V97.7z"/>
	<path d="M947.1,97.7h17.2v112.4h61.3v14.4h-78.5V97.7z"/>
	<path d="M1078.2,97.7h75.3v14.4h-58.1v34.2h55.6v14.4h-55.6v49.4h59.7v14.4h-76.9V97.7z"/>
	<path d="M152.7,267.9h48.7c24.8,0,42.6,4.4,53.5,13.2c10.9,8.8,16.3,23.1,16.3,42.9c0,19.8-5.4,34.1-16.3,42.9
		c-10.9,8.8-28.7,13.2-53.5,13.2h-13.2v67.2h-35.5V267.9z M188.2,297.7v52.7h14.6c11.6,0,19.8-2,24.5-5.9c4.7-3.9,7-10.7,7-20.5
		c0-9.7-2.3-16.5-7-20.5c-4.7-3.9-12.9-5.9-24.5-5.9H188.2z"/>
	<path d="M378.6,362.7c3.5,0.7,6.6,2.4,9.2,5c2.6,2.6,5.8,7.7,9.6,15.2l32.5,64.6h-39l-21.7-45.4c-0.6-1.3-1.5-3-2.5-5.3
		c-6.3-13.6-13.8-20.3-22.4-20.3h-11.3v71h-35.5V267.9h51.2c23.1,0,39.7,4.1,49.7,12.3c10.1,8.2,15.1,21.5,15.1,39.9
		c0,12.4-3,22.2-9,29.5C398.6,356.9,390,361.2,378.6,362.7z M333.1,297.7v49h16.7c9.7,0,16.7-1.9,20.9-5.7
		c4.2-3.8,6.3-10.1,6.3-18.8c0-8.7-2.1-15-6.3-18.8c-4.2-3.8-11.1-5.7-20.9-5.7H333.1z"/>
	<path d="M441,357.9c0-30.7,5.3-53.9,15.9-69.7c10.6-15.7,26.3-23.6,47.1-23.6c20.9,0,36.6,7.9,47.2,23.6
		c10.6,15.7,15.9,38.9,15.9,69.7c0,30.6-5.3,53.8-15.9,69.5C540.6,443.1,524.8,451,504,451c-20.8,0-36.5-7.9-47.1-23.6
		C446.3,411.7,441,388.5,441,357.9z M504,296.5c-9.1,0-15.7,4.8-19.8,14.5c-4.2,9.7-6.3,25.3-6.3,46.9c0,21.5,2.1,37.1,6.3,46.7
		c4.2,9.7,10.8,14.5,19.8,14.5c9.1,0,15.8-4.8,20-14.5c4.2-9.7,6.3-25.2,6.3-46.7c0-21.6-2.1-37.2-6.3-46.9
		C519.8,301.3,513.1,296.5,504,296.5z"/>
	<path d="M591.3,438.6v-41.1c6.9,7.1,14.3,12.4,22.1,16.1c7.8,3.7,15.7,5.5,23.6,5.5c9.3,0,16.1-2.3,20.5-7
		c4.3-4.7,6.5-12.1,6.5-22.3v-90.7h-43.4v-31.3h78.9v122c0,21.9-4.6,37.6-13.8,47c-9.2,9.4-24.3,14.1-45.4,14.1
		c-7.6,0-15.6-1-23.9-3.1C608.1,445.8,599.8,442.7,591.3,438.6z"/>
	<path d="M858.6,447.5H746.8V267.9h111.9v31.3h-76.4v38.7h69.2v31.3h-69.2v47h76.4V447.5z"/>
	<path d="M1004.9,442.3c-5.6,2.9-11.5,5.1-17.7,6.5c-6.2,1.4-12.7,2.2-19.5,2.2c-24.2,0-42.7-8-55.5-23.9
		c-12.8-16-19.1-39-19.1-69.2c0-30.2,6.4-53.3,19.1-69.3c12.8-16,31.2-23.9,55.5-23.9c6.8,0,13.4,0.7,19.6,2.2
		c6.3,1.4,12.1,3.6,17.6,6.5v39.5c-6.1-5.6-12-9.7-17.7-12.3c-5.7-2.6-11.7-3.9-17.7-3.9c-13,0-22.8,5.2-29.4,15.5
		c-6.6,10.3-9.9,25.6-9.9,45.9c0,20.2,3.3,35.5,9.9,45.8c6.6,10.3,16.4,15.5,29.4,15.5c6.1,0,12-1.3,17.7-3.9
		c5.7-2.6,11.6-6.7,17.7-12.3V442.3z"/>
	<path d="M1115.1,447.5h-35.5V298.9H1034v-31h126.7v31h-45.6V447.5z"/>
	<path d="M1346.9,447.5V267.9h35.5v148.3h75.9v31.3H1346.9z"/>
	<path d="M1600.3,447.5h-111.9V267.9h111.9v31.3h-76.4v38.7h69.2v31.3h-69.2v47h76.4V447.5z"/>
	<path d="M1677.9,368.7c-17.9-6.8-30-14-36.3-21.5c-6.3-7.5-9.5-17.6-9.5-30.3c0-16.3,5.2-29.1,15.6-38.4c10.4-9.3,24.7-14,42.9-14
		c8.3,0,16.5,0.9,24.8,2.8c8.3,1.9,16.4,4.7,24.5,8.4v34.6c-7.6-5.4-15.4-9.5-23.2-12.3c-7.9-2.8-15.6-4.2-23.3-4.2
		c-8.6,0-15.2,1.7-19.7,5.2c-4.6,3.4-6.9,8.4-6.9,14.8c0,5,1.7,9.1,5,12.3c3.3,3.2,10.3,6.8,20.9,10.8l15.3,5.8
		c14.4,5.3,25.1,12.3,31.9,21.1c6.8,8.7,10.2,19.8,10.2,33.1c0,18.1-5.4,31.7-16.1,40.6c-10.7,8.9-26.9,13.4-48.5,13.4
		c-8.9,0-17.8-1.1-26.8-3.2c-8.9-2.1-17.6-5.3-25.9-9.4v-36.7c9.5,6.7,18.6,11.7,27.5,15c8.9,3.3,17.6,4.9,26.3,4.9
		c8.7,0,15.5-2,20.3-6c4.8-4,7.2-9.5,7.2-16.7c0-5.4-1.6-10.1-4.8-14.1c-3.2-4-7.9-7.2-14-9.6L1677.9,368.7z"/>
</g>
</svg>
