<?xml version="1.0" encoding="utf-8"?>
<!-- Generator: Adobe Illustrator 19.2.1, SVG Export Plug-In . SVG Version: 6.00 Build 0)  -->
<svg version="1.1" id="Layer_1" xmlns="http://www.w3.org/2000/svg" xmlns:xlink="http://www.w3.org/1999/xlink" x="0px" y="0px"
	 viewBox="0 0 510 510" style="enable-background:new 0 0 510 510;" xml:space="preserve">
<style type="text/css">
	.st0{fill:#FFFFFF;}
	.st1{fill:#2A419A;}
	.st2{fill:#93201C;}
</style>
<title>logo</title>
<desc>Created with Sketch.</desc>
<g id="Page-1">
	<g id="noun_584589_cc">
		<path id="Shape" d="M504.9,5.1c-5.5-5.5-14.4-5.5-20,0l-63.1,63.1l-79.6,19.7c-2.5,0.6-4.8,1.9-6.6,3.7L152,275.4l-40-10.8
			c-4.9-1.3-10.1,0.1-13.7,3.6L5.1,361.5c-3.6,3.6-5,8.8-3.7,13.6c1.3,4.9,5.1,8.7,10,10l89.5,24.2l24.1,89.5c1.3,4.9,5.1,8.8,10,10
			c4.4,1,10.9-1,13.6-3.7l93.2-93.2c3.6-3.6,5-8.8,3.6-13.7l-10.8-40l183.7-183.7c1.8-1.8,3.1-4.1,3.7-6.6l19.7-79.7l63.1-63.1
			C510.4,19.6,510.4,10.6,504.9,5.1L504.9,5.1z M305.2,247.7l-42.9-42.9l39.6-39.6l42.9,42.9L305.2,247.7L305.2,247.7z M205.4,357.7
			l10.8,40L146,467.9L126.1,394c-1.3-4.9-5.1-8.6-9.9-10l-73.8-19.9l70.2-70.2l39.9,10.8c4.9,1.3,10.1-0.1,13.7-3.6l76.3-76.3
			l42.9,42.9L209,344C205.4,347.6,204,352.8,205.4,357.7L205.4,357.7z M395.7,157.3l-30.9,30.9l-42.9-42.9l30.9-30.9l56.9-14.1
			L395.7,157.3L395.7,157.3z"/>
	</g>
</g>
<polygon class="st0" points="305.2,247.7 262.3,204.8 301.9,165.2 344.8,208.1 305.2,247.7 "/>
<path class="st1" d="M205.4,357.7l10.8,40L146,467.9L126.1,394c-1.3-4.9-5.1-8.6-9.9-10l-73.8-19.9l70.2-70.2l39.9,10.8
	c4.9,1.3,10.1-0.1,13.7-3.6l76.3-76.3l42.9,42.9L209,344C205.4,347.6,204,352.8,205.4,357.7L205.4,357.7z"/>
<polygon class="st2" points="395.7,157.3 364.8,188.2 321.9,145.3 352.8,114.4 409.7,100.3 395.7,157.3 "/>
</svg>
